0
SECTION
2
HEADER
9
$ACADVER
1
AC1024
9
$INSUNITS
70
4
0
ENDSEC
0
SECTION
2
TABLES
0
TABLE
2
LAYER
70
10
0
LAYER
2
0
70
0
62
7
6
CONTINUOUS
0
LAYER
2
PLOTS
70
0
62
2
6
CONTINUOUS
0
LAYER
2
MALL_COMMERCIAL
70
0
62
30
6
CONTINUOUS
0
LAYER
2
RESTAURANT
70
0
62
10
6
CONTINUOUS
0
LAYER
2
HOSPITAL
70
0
62
140
6
CONTINUOUS
0
LAYER
2
SCHOOL
70
0
62
200
6
CONTINUOUS
0
LAYER
2
PLOT_NUMBERS
70
0
62
7
6
CONTINUOUS
0
LAYER
2
SITE_BOUNDARY
70
0
62
1
6
CONTINUOUS
0
LAYER
2
MAIN_ROAD_60FT
70
0
62
8
6
CONTINUOUS
0
LAYER
2
GREEN_BELT
70
0
62
3
6
CONTINUOUS
0
ENDTAB
0
ENDSEC
0
SECTION
2
BLOCKS
0
ENDSEC
0
SECTION
2
ENTITIES
0
LWPOLYLINE
8
SITE_BOUNDARY
90
4
70
1
10
0.0
20
0.0
10
500.0
20
0.0
10
500.0
20
400.0
10
0.0
20
400.0
0
LWPOLYLINE
8
MAIN_ROAD_60FT
90
4
70
1
10
220.0
20
0.0
10
280.0
20
0.0
10
280.0
20
400.0
10
220.0
20
400.0
0
LWPOLYLINE
8
GREEN_BELT
90
4
70
1
10
10.0
20
10.0
10
210.0
20
10.0
10
210.0
20
40.0
10
10.0
20
40.0
0
LWPOLYLINE
8
PLOTS
90
4
70
1
10
20.0
20
60.0
10
100.0
20
60.0
10
100.0
20
160.0
10
20.0
20
160.0
0
TEXT
8
PLOT_NUMBERS
10
60.0
20
110.0
40
8.0
1
101
0
LWPOLYLINE
8
PLOTS
90
4
70
1
10
120.0
20
60.0
10
200.0
20
60.0
10
200.0
20
160.0
10
120.0
20
160.0
0
TEXT
8
PLOT_NUMBERS
10
160.0
20
110.0
40
8.0
1
102
0
LWPOLYLINE
8
MALL_COMMERCIAL
90
4
70
1
10
20.0
20
200.0
10
200.0
20
200.0
10
200.0
20
360.0
10
20.0
20
360.0
0
TEXT
8
PLOT_NUMBERS
10
110.0
20
280.0
40
12.0
1
M-1
0
LWPOLYLINE
8
RESTAURANT
90
4
70
1
10
300.0
20
60.0
10
460.0
20
60.0
10
460.0
20
160.0
10
300.0
20
160.0
0
TEXT
8
PLOT_NUMBERS
10
380.0
20
110.0
40
10.0
1
R-1
0
LWPOLYLINE
8
HOSPITAL
90
4
70
1
10
300.0
20
180.0
10
460.0
20
180.0
10
460.0
20
270.0
10
300.0
20
270.0
0
TEXT
8
PLOT_NUMBERS
10
380.0
20
225.0
40
10.0
1
H-1
0
LWPOLYLINE
8
SCHOOL
90
4
70
1
10
300.0
20
290.0
10
460.0
20
290.0
10
460.0
20
380.0
10
300.0
20
380.0
0
TEXT
8
PLOT_NUMBERS
10
380.0
20
335.0
40
10.0
1
S-1
0
ENDSEC
0
EOF
